# xmcd
#
# Track frame offsets: 
#        150
#        18766
#        25286
#        38194
#        65414
#        83784
#        89825
#        122103
#        139533
#        162407
#        176189
#        194934
#        212740
#
# Disc length: 3085 seconds
#
# Revision: 0
# Processed by: cddbd v1.5.2PL0 Copyright (c) Steve Scherf et al.
# Submitted via: ExactAudioCopy v0.99pb5
#
DISCID=bd0c0b0d
DTITLE=Kelly Bell Band - That's What's Up!
DYEAR=2008
DGENRE=Phat Blues
TTITLE0=Painful Intro
TTITLE1=Slander (Come Here Baby)
TTITLE2=Same Ol' Thang
TTITLE3=Porno Star (Feat. Wordslave)
TTITLE4=Dear Maggie
TTITLE5=Brown Frame
TTITLE6=No Different
TTITLE7=Walk Right Out (Feat. Phoenix Soul)
TTITLE8=Statesboro Blues
TTITLE9=Love In Vain
TTITLE10=Rain No More
TTITLE11=F.B.I. (Hip-Hop Version)
TTITLE12=Take it Away
EXTD=
EXTT0=
EXTT1=
EXTT2=
EXTT3=
EXTT4=
EXTT5=
EXTT6=
EXTT7=
EXTT8=
EXTT9=
EXTT10=
EXTT11=
EXTT12=
PLAYORDER=
